<?xml version="1.0" encoding="iso-8859-1"?><!DOCTYPE svg PUBLIC "-//W3C//DTD SVG 1.1//EN" "http://www.w3.org/Graphics/SVG/1.1/DTD/svg11.dtd"><svg xmlns="http://www.w3.org/2000/svg" xmlns:xlink="http://www.w3.org/1999/xlink"><symbol viewBox="0 0 424 512" id="checklist" xmlns="http://www.w3.org/2000/svg"><path d="M400.003 152H256.001c-5.523 0-10 4.477-10 10s4.477 10 10 10h144.002c5.523 0 10-4.477 10-10s-4.477-10-10-10zM365.011 202.931c-1.86-1.86-4.44-2.93-7.07-2.93s-5.21 1.07-7.07 2.93c-1.86 1.86-2.93 4.44-2.93 7.07s1.07 5.21 2.93 7.07 4.44 2.93 7.07 2.93 5.21-1.07 7.07-2.93c1.86-1.86 2.93-4.44 2.93-7.07s-1.07-5.21-2.93-7.07zM263.061 45.931c-1.86-1.86-4.44-2.93-7.07-2.93s-5.21 1.07-7.07 2.93c-1.86 1.86-2.93 4.44-2.93 7.07s1.07 5.21 2.93 7.07c1.86 1.86 4.44 2.93 7.07 2.93s5.21-1.07 7.07-2.93c1.86-1.86 2.93-4.44 2.93-7.07s-1.07-5.21-2.93-7.07zM315.878 200h-59.877c-5.523 0-10 4.477-10 10s4.477 10 10 10h59.877c5.523 0 10-4.477 10-10s-4.477-10-10-10zM400.003 260H256.001c-5.523 0-10 4.477-10 10s4.477 10 10 10h144.002c5.523 0 10-4.477 10-10s-4.477-10-10-10zM365.011 310.931c-1.86-1.86-4.44-2.93-7.07-2.93s-5.21 1.07-7.07 2.93c-1.86 1.86-2.93 4.44-2.93 7.07s1.07 5.21 2.93 7.07 4.44 2.93 7.07 2.93 5.21-1.07 7.07-2.93c1.86-1.86 2.93-4.44 2.93-7.07s-1.07-5.21-2.93-7.07zM315.878 308h-59.877c-5.523 0-10 4.477-10 10s4.477 10 10 10h59.877c5.523 0 10-4.477 10-10s-4.477-10-10-10zM400.003 368H256.001c-5.523 0-10 4.477-10 10s4.477 10 10 10h144.002c5.523 0 10-4.477 10-10s-4.477-10-10-10zM365.011 418.931c-1.86-1.86-4.44-2.93-7.07-2.93s-5.21 1.07-7.07 2.93c-1.86 1.86-2.93 4.44-2.93 7.07s1.07 5.21 2.93 7.07 4.44 2.93 7.07 2.93 5.21-1.07 7.07-2.93c1.86-1.86 2.93-4.44 2.93-7.07s-1.07-5.21-2.93-7.07zM315.878 416h-59.877c-5.523 0-10 4.477-10 10s4.477 10 10 10h59.877c5.523 0 10-4.477 10-10s-4.477-10-10-10z"/><path d="M419.243 39.001h-76.379C331.823 28.48 316.898 22 300.479 22h-8.76C285.022 8.742 271.263 0 256 0s-29.021 8.742-35.719 22H211.5c-16.419 0-31.343 6.48-42.384 17.001H92.759c-26.885 0-48.758 21.873-48.758 48.758v375.484c0 26.885 21.873 48.758 48.758 48.758h326.483c26.885 0 48.758-21.873 48.758-48.758V87.759c.001-26.885-21.872-48.758-48.757-48.758zM211.501 42h15.586a10 10 0 009.639-7.338C239.111 26.029 247.037 20 256.001 20c8.964 0 16.89 6.029 19.274 14.662A10 10 0 00284.914 42h15.565c21.705 0 39.571 16.75 41.354 38.001H170.147C171.93 58.75 189.797 42 211.501 42zm236.5 421.244c0 15.857-12.901 28.758-28.758 28.758H92.759c-15.857 0-28.758-12.901-28.758-28.758V87.759c0-15.857 12.901-28.758 28.758-28.758h62.347a61.135 61.135 0 00-5.105 24.5v6.5c0 5.523 4.477 10 10 10H351.98c5.523 0 10-4.477 10-10v-6.5a61.139 61.139 0 00-5.105-24.5h62.368c15.857 0 28.758 12.901 28.758 28.758v375.485z"/><path d="M192.41 149.596c-3.905-3.905-10.237-3.905-14.142-.001l-42.762 42.763-13.173-13.174c-3.905-3.904-10.237-3.904-14.143 0-3.905 3.905-3.905 10.237 0 14.143l20.245 20.245a9.968 9.968 0 007.071 2.929 9.966 9.966 0 007.071-2.929l49.833-49.833c3.905-3.905 3.905-10.237 0-14.143zM168.001 368h-48c-5.523 0-10 4.477-10 10v48c0 5.523 4.477 10 10 10h48c5.523 0 10-4.477 10-10v-48c0-5.523-4.477-10-10-10zm-10 48h-28v-28h28v28zM168.001 260h-48c-5.523 0-10 4.477-10 10v48c0 5.523 4.477 10 10 10h48c5.523 0 10-4.477 10-10v-48c0-5.523-4.477-10-10-10zm-10 48h-28v-28h28v28z"/></symbol><symbol viewBox="0 0 303.6 407.51" id="clipboard" xmlns="http://www.w3.org/2000/svg"><path d="M271.422 30.844h-29.78a8.36 8.36 0 01-7.837-6.269C230.983 9.914 217.902-.507 202.981.02c-15.011-.263-28.028 10.327-30.824 25.078a7.837 7.837 0 01-7.837 5.747h-28.735V83.09h135.837V30.844z"/><path d="M355.014 382.974V83.611c.032-11.83-9.533-21.446-21.363-21.478a22.034 22.034 0 00-1.625.057h-44.931v26.645c0 4.18-2.612 9.927-6.792 9.927H126.181c-4.18 0-6.269-5.747-6.269-9.927V62.191H74.981c-11.798-.866-22.065 7.997-22.93 19.796-.04.541-.059 1.083-.057 1.625v299.363c-.292 12.981 9.995 23.741 22.976 24.032h257.057c12.981-.285 23.273-11.04 22.988-24.021l-.001-.012zm-193.829-68.963l-40.751 38.139a7.31 7.31 0 01-5.224 2.612 8.362 8.362 0 01-5.747-2.612l-21.42-21.943a7.836 7.836 0 01.522-10.971 7.836 7.836 0 0110.971 0l15.673 16.718 35.527-33.437a7.837 7.837 0 0110.449 11.494zm0-83.592l-40.751 38.139a7.31 7.31 0 01-5.224 2.612 8.362 8.362 0 01-5.747-2.612l-21.42-21.943a7.836 7.836 0 01.522-10.971 7.836 7.836 0 0110.971 0l15.673 16.718 35.527-33.437a7.837 7.837 0 0110.449 11.494zm0-83.592l-40.751 38.139a7.31 7.31 0 01-5.224 2.612 8.362 8.362 0 01-5.747-2.612l-21.42-21.943a7.836 7.836 0 01.522-10.971 7.836 7.836 0 0110.971 0l15.673 16.718 35.527-33.437a7.837 7.837 0 0110.449 11.494zm152.033 197.486H193.054a7.837 7.837 0 010-15.674h120.163a7.837 7.837 0 01.001 15.674zm0-83.592H193.054a7.837 7.837 0 010-15.674h120.163a7.837 7.837 0 01.001 15.674zm0-83.592H193.054a7.837 7.837 0 010-15.674h120.163a7.837 7.837 0 01.001 15.674z"/></symbol><symbol viewBox="0 0 512 486.4" id="driver" xmlns="http://www.w3.org/2000/svg"><path d="M486.639 412.16c-51.2-26.948-90.351-41.899-125.124-47.804l3.78-5.205a8.5 8.5 0 001.374-7.091l-7.919-31.676c21.231-29.935 33.784-67.328 33.784-102.784v-52.625l.102-.077c7.006-5.871 12.023-13.542 14.711-22.042l-8.73-2.381-44.749-7.859c-65.877-11.861-131.695-11.861-195.678-.017l-45.568 8.047-8.03 2.005c2.671 8.585 7.706 16.324 14.763 22.246.034.034.077.051.111.085V217.6c0 35.456 12.553 72.849 33.775 102.784l-7.919 31.676a8.532 8.532 0 001.374 7.091l3.789 5.205c-34.773 5.905-73.924 20.855-125.133 47.804C9.711 420.395 0 436.498 0 454.179v36.489a8.53 8.53 0 008.533 8.533h494.933a8.536 8.536 0 008.533-8.533v-36.489c.001-17.681-9.718-33.784-25.36-42.019zm-266.564 18.868l-57.233-78.694 3.831-15.309c.034.043.068.068.102.102 20.617 22.409 46.831 38.195 76.39 41.788.017 0 .034.009.06.009l-23.15 52.104zm-33.374-98.193c-2.142-2.005-4.301-3.951-6.357-6.144-.026-.017-.043-.043-.068-.06a157.416 157.416 0 01-9.097-10.615c-.256-.333-.64-.521-.947-.802-20.105-25.37-33.698-59.187-33.698-97.613v-43.494c.205.06.418.094.631.145.777.222 1.579.375 2.364.555.93.205 1.852.435 2.79.58.845.136 1.698.196 2.551.29.887.094 1.766.222 2.662.265 1.109.051 2.227.009 3.336-.017.649-.009 1.297.026 1.946-.017a46.233 46.233 0 005.376-.64c63.983-11.844 129.801-11.844 195.678.017 2.5.444 4.992.606 7.475.657.273 0 .546.068.819.068.265 0 .512-.068.768-.068 4.258-.068 8.474-.64 12.535-1.835V217.6c0 38.426-13.602 72.243-33.707 97.613-.299.282-.691.469-.947.802a152.72 152.72 0 01-9.088 10.607l-.077.077c-2.057 2.185-4.215 4.13-6.349 6.127-20.864 18.816-45.645 29.841-69.299 29.841-23.661 0-48.442-11.025-69.297-29.832zm105.224 98.193l-23.151-52.105c.017 0 .034-.009.051-.009 29.559-3.593 55.782-19.379 76.39-41.788.034-.034.077-.06.102-.102l3.84 15.309-57.232 78.695z"/><path d="M155.159 115.805c65.929-12.203 133.82-12.211 201.702.009l45.474 8.021 7.125 1.937C407.976 63.24 356.75 12.8 293.86 12.8h-75.725c-62.831 0-114.005 50.338-115.593 112.794l6.528-1.63 46.089-8.159zm75.238-68.872a8.53 8.53 0 018.533-8.533h34.133a8.53 8.53 0 018.533 8.533V89.6a8.53 8.53 0 01-8.533 8.533H238.93a8.53 8.53 0 01-8.533-8.533V46.933z"/><path d="M247.464 55.466h17.067v25.6h-17.067z"/></symbol><symbol viewBox="0 0 168.097 168.097" id="eye" xmlns="http://www.w3.org/2000/svg"><circle cx="84.048" cy="84.044" r="20.699"/><path d="M167.055 81.422c-1.516-1.604-37.579-39.41-83.017-39.41-45.433 0-81.491 37.806-83.003 39.41a3.83 3.83 0 000 5.236c1.518 1.604 37.577 39.427 83.003 39.427 45.438 0 81.512-37.823 83.017-39.427a3.81 3.81 0 000-5.236zm-83.007 34.621c-17.639 0-31.989-14.353-31.989-32.006 0-17.639 14.35-32 31.989-32 17.638 0 32.008 14.356 32.008 32-.004 17.643-14.37 32.006-32.008 32.006zM58.682 53.829c-8.645 7.275-14.269 18.044-14.269 30.208 0 12.159 5.624 22.929 14.269 30.217-23.92-7.693-42.704-23.88-49.418-30.217 6.715-6.33 25.503-22.519 49.418-30.208zm50.744 60.413c8.639-7.28 14.27-18.052 14.27-30.205 0-12.153-5.626-22.917-14.277-30.197 23.919 7.693 42.689 23.86 49.407 30.197-6.719 6.331-25.489 22.501-49.4 30.205z"/></symbol><symbol viewBox="0 0 513.94 513.71" id="information" xmlns="http://www.w3.org/2000/svg"><path d="M501.874 482.794c-6.312-3.676-44.743-27.475-65.305-70.505 48.023-44.904 75.337-107.371 75.337-171.301C511.906 108.678 396.537.032 255.953.032S0 108.678 0 240.988s115.369 240.956 255.953 240.956c18.872 0 39.143-1.769 67.111-7.645 73.508 39.06 139.486 37.962 164.589 37.566 11.175-.139 19.288 1.879 23.463-9.666 2.826-7.744-1.354-16.689-9.242-19.405zM285.948 361.966c0 16.564-13.429 29.995-29.995 29.995-16.566 0-29.995-13.431-29.995-29.995V240.988c0-16.566 13.429-29.995 29.995-29.995 16.566 0 29.995 13.429 29.995 29.995v120.978zm-29.995-196.964c-16.566 0-29.995-13.431-29.995-29.995 0-16.566 13.429-29.995 29.995-29.995 16.566 0 29.995 13.429 29.995 29.995 0 16.565-13.429 29.995-29.995 29.995z"/></symbol><symbol viewBox="0 0 475.52 214.35" id="line-chart" xmlns="http://www.w3.org/2000/svg"><path d="M441.396 134.17a43.767 43.767 0 00-14.245-4.689c-23.892-3.53-46.122 12.977-49.652 36.869a43.73 43.73 0 007.61 31.716l-46.563 42.276c-16.216-17.938-43.903-19.335-61.841-3.119a43.795 43.795 0 00-9.599 12.501l-53.691-43.337c1.222-24.139-17.355-44.698-41.494-45.92-24.139-1.222-44.698 17.355-45.92 41.494-.14 2.766-.017 5.54.367 8.283L75.759 262.03c-16.453-17.685-44.128-18.684-61.813-2.23-17.685 16.453-18.684 44.128-2.23 61.813 16.453 17.685 44.128 18.684 61.813 2.23a43.736 43.736 0 0012.387-43.592l48.762-49.894c14.47 19.35 41.886 23.307 61.236 8.837a43.75 43.75 0 0011.139-12.237l55.289 44.625c.919 20.972 16.596 38.339 37.364 41.393 2.137.315 4.295.473 6.455.474 24.193-.073 43.747-19.744 43.674-43.937a43.83 43.83 0 00-1.459-11.082l51.813-47.043c21.323 11.379 47.833 3.318 59.212-18.005 11.379-21.323 3.318-47.833-18.005-59.212zM67.226 295.248c-1.898 12.995-13.972 21.992-26.967 20.093-12.995-1.898-21.992-13.972-20.093-26.967 1.898-12.995 13.972-21.992 26.967-20.093a.445.445 0 00.036.005c12.974 1.923 21.946 13.983 20.057 26.962zm126.001-87.655c-1.914 12.982-13.988 21.956-26.97 20.043s-21.956-13.987-20.043-26.969c1.715-11.638 11.686-20.269 23.45-20.297 1.171.001 2.341.086 3.5.257 12.978 1.92 21.954 13.983 20.063 26.966zm136.351 65.537c-1.913 12.982-13.987 21.956-26.969 20.043-12.982-1.913-21.956-13.987-20.043-26.969 1.715-11.638 11.688-20.27 23.452-20.297 1.171 0 2.341.086 3.5.257 12.984 1.908 21.964 13.98 20.056 26.965v.001h.004zm114.72-96.9c-1.903 12.991-13.978 21.98-26.969 20.077-12.991-1.903-21.98-13.978-20.077-26.969 1.903-12.991 13.978-21.98 26.969-20.077l.02.003c12.984 1.909 21.963 13.982 20.056 26.966h.001z"/></symbol><symbol viewBox="0 0 354 427.1" id="list" xmlns="http://www.w3.org/2000/svg"><path d="M93.55 156.5c-31.5 0-57 25.5-57 57s25.5 57 57 57 57-25.5 57-57c-.1-31.4-25.6-56.9-57-57zm0 94c-20.4 0-37-16.5-37-37 0-20.4 16.5-37 37-37 20.4 0 37 16.5 37 37-.1 20.4-16.6 36.9-37 37zM380.55 172.5h-203.5c-5.5 0-10 4.5-10 10s4.5 10 10 10h203.5c5.5 0 10-4.5 10-10s-4.5-10-10-10zM286.65 234.5h-109.6c-5.5 0-10 4.5-10 10s4.4 10 10 10h109.6c5.5 0 10-4.5 10-10s-4.5-10-10-10zM93.55 0c-31.5 0-57 25.5-57 57s25.5 57 57 57 57-25.5 57-57c-.1-31.5-25.6-57-57-57zm0 93.9c-20.4 0-37-16.5-37-37s16.5-37 37-37c20.4 0 37 16.5 37 37-.1 20.5-16.6 37-37 37zM380.55 15.5h-203.5c-5.5 0-10 4.5-10 10s4.5 10 10 10h203.5c5.5 0 10-4.5 10-10s-4.5-10-10-10zM286.65 78.5h-109.6c-5.5 0-10 4.5-10 10s4.4 10 10 10h109.6c5.5 0 10-4.5 10-10s-4.5-10-10-10zM93.55 313.1c-31.5 0-57 25.5-57 57s25.5 57 57 57 57-25.5 57-57c-.1-31.5-25.6-57-57-57zm0 93.9c-20.4 0-37-16.5-37-37 0-20.4 16.5-37 37-37 20.4 0 37 16.5 37 37-.1 20.5-16.6 37-37 37zM380.55 328.5h-203.5c-5.5 0-10 4.5-10 10s4.5 10 10 10h203.5c5.5 0 10-4.5 10-10s-4.5-10-10-10zM286.65 391.5h-109.6c-5.5 0-10 4.5-10 10s4.5 10 10 10h109.6c5.5 0 10-4.5 10-10s-4.5-10-10-10z"/></symbol><symbol viewBox="0 0 512 512" id="maracas" xmlns="http://www.w3.org/2000/svg"><path d="M338.15 451.659c8.773-6.711 10.445-19.264 3.733-28.037L221.489 266.24l-31.77 24.303 120.394 157.383c6.711 8.773 19.264 10.444 28.037 3.733zM155.32 212.641l32.428-49.988 38.822-12.468c-2.333-17.206-8.84-34.068-19.693-49.046L30.686 228.682c.56.773 1.132 1.542 1.716 2.305 11.894 15.548 27.169 26.975 44 34.079l22.186-34.207z"/><path d="M226.57 150.185l-38.822 12.468-32.428 49.988-56.732 18.218-22.186 34.207c25.867 10.917 55.419 11.595 82.095 1.122l23.279 30.431 47.655-36.455-23.279-30.431c17.093-23.012 24.191-51.72 20.418-79.548zM203.21 96.326a107.555 107.555 0 00-32.99-27.206l-43.37 13.925-32.428 49.988-56.732 18.218-24.855 38.32c3.186 13.723 9.099 27.033 17.851 39.111l176.191-127.543a110.549 110.549 0 00-3.667-4.813z"/><path d="M94.421 133.033l32.428-49.988 43.371-13.926c-36.087-19.244-81.644-17.274-116.278 8.464-35.931 26.702-50.583 71.178-41.108 111.987l24.855-38.32zM474.494 151.363l-56.879-18.33-32.575-50.1-43.089-13.885a107.564 107.564 0 00-33.124 27.277 110.819 110.819 0 00-3.661 4.806l176.18 127.559c8.787-12.123 14.713-25.487 17.892-39.265z"/><path d="M417.616 133.033l56.879 18.33 24.743 38.062c9.406-40.769-5.255-85.171-41.143-111.841-34.591-25.706-80.077-27.703-116.143-8.536l43.089 13.885zM356.718 212.641l-32.575-50.1-38.661-12.461c-3.805 27.861 3.289 56.612 20.403 79.652l-23.279 30.431 47.655 36.455 23.279-30.431c26.71 10.487 56.302 9.793 82.193-1.163l-22.137-34.053z"/><path d="M285.482 150.08l38.661 12.461 32.575 50.1 56.878 18.33 22.137 34.053c16.792-7.106 32.031-18.519 43.902-34.037.582-.761 1.152-1.527 1.71-2.298L305.165 101.13c-10.833 14.951-17.338 31.777-19.683 48.95zM173.887 451.659c-8.773-6.711-10.445-19.264-3.733-28.037L290.548 266.24l31.77 24.303-120.394 157.383c-6.711 8.773-19.264 10.444-28.037 3.733z"/><g><path d="M495.38 104.232c-2.817-4.748-8.953-6.313-13.703-3.494-4.749 2.819-6.314 8.955-3.494 13.704 8.618 14.517 13.194 30.503 13.84 46.544l-10.093-15.769a10.003 10.003 0 00-5.423-4.149l-52.427-16.485-29.63-46.286a10.003 10.003 0 00-5.423-4.148l-17.383-5.465c14.665-3.29 30.152-3.3 45.259.378 5.366 1.308 10.774-1.984 12.082-7.35 1.307-5.366-1.983-10.775-7.35-12.082-44.544-10.849-91.872 5.01-120.575 40.396-32.628 40.226-35.358 96.518-7.546 139.417l-18.852 24.645c-3.355 4.386-2.52 10.663 1.866 14.018l-20.513 26.815-20.511-26.814.002-.002c4.387-3.355 5.223-9.632 1.867-14.018l-18.852-24.645c27.813-42.9 25.083-99.192-7.546-139.417-19.29-23.783-46.779-38.996-77.401-42.839-30.616-3.841-61.016 4.103-85.597 22.37C22.246 88.68 5.625 116.681 1.176 148.403c-4.45 31.729 3.819 63.215 23.284 88.66 15.99 20.903 37.836 35.583 63.177 42.451 22.059 5.98 45.689 5.425 67.34-1.471l18.858 24.651a10.002 10.002 0 0014.018 1.867l30.393 39.736-56.034 73.248c-10.05 13.139-7.538 32.004 5.601 42.055 5.287 4.045 11.619 6.178 18.165 6.178 1.334 0 2.677-.089 4.021-.268 7.943-1.058 15-5.145 19.868-11.51l46.151-60.33L302.167 454c5.902 7.711 14.837 11.763 23.869 11.762a29.85 29.85 0 0018.194-6.162c6.36-4.874 10.446-11.929 11.504-19.868 1.06-7.947-1.042-15.829-5.913-22.186l-56.035-73.248 30.399-39.738a10 10 0 0014.018-1.866l18.858-24.651c21.651 6.896 45.281 7.451 67.34 1.471 25.34-6.869 47.186-21.548 63.176-42.451 14.689-19.2 23.089-42.066 24.293-66.126 1.175-23.487-4.527-46.553-16.49-66.705zM59.907 85.61c23.509-17.47 52.981-22.727 80.125-16.814l-17.023 5.352a10.003 10.003 0 00-5.423 4.148l-29.629 46.286-52.427 16.486a9.996 9.996 0 00-5.423 4.149l-10.009 15.638c.138-3.216.431-6.443.884-9.674 3.7-26.38 17.524-49.666 38.925-65.571zM23.803 192.17l21.192-33.112 52.426-16.485a10.003 10.003 0 005.423-4.148l29.629-46.286 37.225-11.704a96.375 96.375 0 0122.851 18.792L33.297 214.385a97.926 97.926 0 01-9.494-22.215zm21.238 38.404l159.216-115.132a98.645 98.645 0 0111.032 28.446l-31.382 9.869a10 10 0 00-5.422 4.148l-29.63 46.287-52.426 16.485a9.996 9.996 0 00-5.423 4.149l-17.699 27.655a98.323 98.323 0 01-28.266-21.907zm121.399 29.538a10 10 0 00-11.597-3.233c-20.394 8.007-42.367 8.719-62.572 3.072l13.623-21.286 52.426-16.485a10.003 10.003 0 005.423-4.148l29.63-46.287 24.184-7.605c.176 20.922-6.264 41.904-19.431 59.629a10 10 0 00.085 12.039l17.203 22.489-31.77 24.303zm37.296 32.298l15.884-12.151 23.806 31.121-12.591 16.459zm-9.754 149.44c-3.351 4.379-9.64 5.216-14.018 1.867-4.379-3.351-5.217-9.639-1.867-14.019l114.318-149.44L308.3 292.41zm139.96-12.145a9.914 9.914 0 011.969 7.386 9.958 9.958 0 01-3.839 6.63c-4.376 3.349-10.667 2.508-14.021-1.874l-49.443-64.635 12.587-16.455zm23.252-172.826a9.994 9.994 0 00-11.597 3.232L328.394 282.6l-31.77-24.303 17.203-22.489a10 10 0 00.085-12.039c-13.166-17.725-19.606-38.707-19.43-59.628l24.184 7.605 29.63 46.287a10 10 0 005.422 4.148l52.426 16.485 13.623 21.285c-20.205 5.647-42.178 4.935-62.573-3.072zm81.537-4.399l-17.7-27.655a10.003 10.003 0 00-5.423-4.149l-52.427-16.485-29.63-46.287a10 10 0 00-5.422-4.148l-31.382-9.869a98.668 98.668 0 0111.032-28.445l159.215 115.132a98.276 98.276 0 01-28.263 21.906zm39.998-38.103L319.495 99.232a97.59 97.59 0 0122.774-18.82l37.296 11.726 29.63 46.286a10 10 0 005.422 4.148l52.426 16.485 21.204 33.13a98.785 98.785 0 01-9.518 22.19z"/><circle cx="458.095" cy="77.584" r="10"/></g></symbol><symbol viewBox="0 0 512 512" id="placeholder" xmlns="http://www.w3.org/2000/svg"><path d="M256 245.254c46.28 0 83.932-37.647 83.932-83.921S302.28 77.413 256 77.413s-83.932 37.646-83.932 83.92S209.72 245.254 256 245.254zm0-137.845c29.738 0 53.932 24.191 53.932 53.924 0 29.734-24.193 53.925-53.932 53.925s-53.932-24.191-53.932-53.925c0-29.733 24.194-53.924 53.932-53.924z"/><path d="M164.612 312.131c22.735 30.777 13.601 18.808 79.086 112.303 5.952 8.531 18.609 8.571 24.595.013 65.781-93.939 56.73-82.041 79.095-112.317 22.655-30.672 46.083-62.388 58.921-99.554 18.581-53.801 10.549-107.034-22.614-149.894l-.002-.001C353.315 23.432 305.579 0 256 0s-97.315 23.432-127.694 62.683c-33.163 42.86-41.195 96.094-22.613 149.895 12.836 37.165 36.264 68.881 58.919 99.553zm-12.58-231.092C176.77 49.078 215.637 29.996 256 29.996s79.23 19.082 103.968 51.043l-.002-.001c26.767 34.592 33.153 77.83 17.985 121.748-11.339 32.828-33.38 62.667-54.695 91.524-16.596 22.467-11.629 15.595-67.256 95.333-55.569-79.658-50.665-72.873-67.256-95.333-21.315-28.857-43.356-58.697-54.695-91.524-15.168-43.919-8.782-87.156 17.983-121.747z"/><path d="M176.932 377.167c-4.424-7.002-13.688-9.095-20.692-4.67l-42.65 26.937c-9.304 5.876-9.313 19.478 0 25.36l134.4 84.888a15.001 15.001 0 0016.021 0l134.4-84.888c9.305-5.876 9.313-19.478 0-25.36l-42.65-26.937c-7.006-4.424-16.269-2.332-20.692 4.67-4.425 7.003-2.333 16.266 4.671 20.69l22.574 14.257L256 479.262l-106.313-67.148 22.574-14.257c7.004-4.423 9.095-13.686 4.671-20.69z"/></symbol><symbol viewBox="0 0 352.27 392.72" id="stack" xmlns="http://www.w3.org/2000/svg"><path d="M349.869 84.591L228.748 9.142c-19.564-12.187-51.306-12.192-70.879 0L36.748 84.591c-19.564 12.187-19.573 31.96 0 44.152l121.121 75.449c19.564 12.187 51.306 12.192 70.879 0l121.121-75.449c19.564-12.187 19.573-31.96 0-44.152zm-138.285 84.078c-9.98 6.333-26.202 6.307-36.14 0l-97.578-61.923 97.578-61.734c9.98-6.314 26.202-6.287 36.14 0l97.578 61.734-97.578 61.923z"/><path d="M349.869 172.542l-2.527-1.574-127.273 80.305-.047-.007-8.438 5.354c-9.98 6.333-26.202 6.307-36.14 0l-97.578-61.923.022-.014-38.131-24.017-3.01 1.875c-19.564 12.187-19.573 31.96 0 44.152l121.121 75.449c19.564 12.187 51.306 12.192 70.879 0l121.121-75.449c19.565-12.186 19.574-31.959.001-44.151z"/><path d="M349.869 257.875l-2.527-1.574-127.273 80.305-.047-.007-8.438 5.354c-9.98 6.333-26.202 6.307-36.14 0L77.867 280.03l.022-.014L39.758 256l-3.01 1.875c-19.564 12.187-19.573 31.96 0 44.152l121.121 75.449c19.564 12.187 51.306 12.192 70.879 0l121.121-75.449c19.564-12.187 19.573-31.96 0-44.152z"/></symbol><symbol viewBox="0 0 512 512" id="travel" xmlns="http://www.w3.org/2000/svg"><g clip-rule="evenodd" fill-rule="evenodd"><path d="M445.5 100h-125V15c0-8.284-6.716-15-15-15h-240c-8.284 0-15 6.716-15 15v381c0 8.284 6.716 15 15 15h125s.038 85.88.054 86.075c.553 7.78 7.025 13.925 14.946 13.925h240c8.284 0 15-6.716 15-15V115c0-8.285-6.716-15-15-15zm-225 311h48.747L220.5 459.67zM80.5 30h210v351h-210zm350 451H241.597s74.501-74.385 74.524-74.41c2.766-2.773 4.378-6.671 4.378-10.59V130h110v351z"/><path d="M261 185.5c0-41.63-33.869-75.5-75.5-75.5S110 143.87 110 185.5c0 24.826 19.428 60.941 27.781 75.316C166.941 311 180.425 311 185.5 311s18.56 0 47.719-50.184C241.573 246.441 261 210.326 261 185.5zm-50.809 55.124c-9.931 17.864-19.061 30.371-24.691 36.801-5.63-6.43-14.76-18.937-24.691-36.801C147.974 217.537 140 196.414 140 185.5c0-25.088 20.411-45.5 45.5-45.5s45.5 20.411 45.5 45.5c0 10.914-7.973 32.037-20.809 55.124z"/><path d="M185.501 170.5c-8.262 0-15 6.738-15 15 0 8.261 6.738 15 15 15 8.261 0 15-6.738 15-15s-6.739-15-15-15z"/></g></symbol></svg>