<svg width="533" height="467" viewBox="0 0 533 467" fill="none" xmlns="http://www.w3.org/2000/svg">
<path d="M401.5 353.5C401.5 412.31 342.271 460.5 268.5 460.5C194.729 460.5 135.5 412.31 135.5 353.5C135.5 294.69 194.729 246.5 268.5 246.5C342.271 246.5 401.5 294.69 401.5 353.5Z" fill="#CE7D50" stroke="#7D2002" stroke-width="3"/>
<mask id="path-2-inside-1" fill="white">
<path fill-rule="evenodd" clip-rule="evenodd" d="M310.112 54.086C300.713 32.6702 284.586 17.8321 255.957 0C263.156 21.1809 268.182 37.0942 267.874 53.1555C12.348 59.7667 -39.5863 275.687 28 411C63.2201 481.513 88.3854 444.915 124.386 392.558C158.549 342.875 202.47 279 274 279C353.397 279 393.484 355.672 422.363 410.908C446.92 457.875 463.373 489.344 489 445C572.664 300.231 548.171 71.7251 310.112 54.086Z"/>
</mask>
<path fill-rule="evenodd" clip-rule="evenodd" d="M310.112 54.086C300.713 32.6702 284.586 17.8321 255.957 0C263.156 21.1809 268.182 37.0942 267.874 53.1555C12.348 59.7667 -39.5863 275.687 28 411C63.2201 481.513 88.3854 444.915 124.386 392.558C158.549 342.875 202.47 279 274 279C353.397 279 393.484 355.672 422.363 410.908C446.92 457.875 463.373 489.344 489 445C572.664 300.231 548.171 71.7251 310.112 54.086Z" fill="#E05A29"/>
<path d="M255.957 0L258.601 -4.24406L246.718 -11.6451L251.223 1.609L255.957 0ZM310.112 54.086L305.534 56.0955L306.743 58.85L309.743 59.0723L310.112 54.086ZM267.874 53.1555L268.003 58.1538L272.781 58.0302L272.873 53.2515L267.874 53.1555ZM28 411L23.5269 413.234L28 411ZM124.386 392.558L128.506 395.391L124.386 392.558ZM422.363 410.908L417.932 413.224L422.363 410.908ZM489 445L484.671 442.498L489 445ZM253.314 4.24406C281.633 21.8832 296.738 36.0542 305.534 56.0955L314.691 52.0765C304.688 29.2863 287.539 13.781 258.601 -4.24406L253.314 4.24406ZM272.873 53.2515C273.201 36.1712 267.842 19.4317 260.691 -1.609L251.223 1.609C258.47 22.9301 263.164 38.0172 262.875 53.0595L272.873 53.2515ZM32.4731 408.766C-0.679678 342.391 -4.46465 256.259 31.2266 186.081C66.7575 116.219 141.811 61.4188 268.003 58.1538L267.744 48.1572C138.411 51.5034 59.7342 107.969 22.3131 181.548C-14.9476 254.811 -10.9066 344.295 23.5269 413.234L32.4731 408.766ZM120.266 389.726C111.229 402.868 103.037 414.776 95.2294 424.268C87.3461 433.851 80.332 440.36 73.8379 443.301C70.6907 444.726 67.7787 445.259 64.9742 444.982C62.169 444.704 59.1284 443.583 55.7767 441.171C48.9086 436.228 41.1754 426.189 32.4731 408.766L23.5269 413.234C32.4346 431.068 41.0546 442.896 49.9357 449.287C54.4586 452.542 59.1415 454.454 63.9906 454.933C68.8402 455.412 73.513 454.425 77.9628 452.41C86.6626 448.471 94.8912 440.42 102.952 430.62C111.09 420.728 119.543 408.427 128.506 395.391L120.266 389.726ZM274 274C236.588 274 206.575 290.75 181.802 313.462C157.12 336.09 137.291 364.967 120.266 389.726L128.506 395.391C145.645 370.466 164.857 342.563 188.56 320.833C212.17 299.187 239.882 284 274 284V274ZM426.794 408.591C412.406 381.072 394.889 347.512 370.835 320.888C346.669 294.14 315.548 274 274 274V284C311.849 284 340.47 302.196 363.415 327.592C386.474 353.114 403.441 385.507 417.932 413.224L426.794 408.591ZM484.671 442.498C478.374 453.394 473.192 458.574 469.135 460.446C467.257 461.312 465.624 461.47 464.064 461.172C462.427 460.861 460.547 459.982 458.377 458.27C453.929 454.76 449.151 448.47 443.802 439.684C438.508 430.991 432.956 420.377 426.794 408.591L417.932 413.224C424.048 424.922 429.762 435.855 435.26 444.885C440.703 453.824 446.245 461.436 452.183 466.121C455.206 468.507 458.536 470.299 462.193 470.996C465.927 471.707 469.673 471.211 473.325 469.526C480.328 466.294 486.812 458.778 493.329 447.502L484.671 442.498ZM309.743 59.0723C426.869 67.7509 490.697 128.034 515.452 203.429C540.359 279.287 525.914 371.133 484.671 442.498L493.329 447.502C535.75 374.098 550.89 279.306 524.953 200.309C498.863 120.849 431.414 58.0602 310.482 49.0997L309.743 59.0723Z" fill="#EFBE48" mask="url(#path-2-inside-1)"/>
<path d="M303.5 151.5C313.833 127.667 347.3 80.9 398.5 84.5M325.5 151.5C345.667 133.5 400.8 103.6 460 128M351.5 162C372.833 143.833 433.8 123.8 507 189M363 170.5C394.833 160.833 468.2 160.9 507 238.5M374 195C400.833 189.833 463.4 197.3 499 268.5M383 216.5C397.333 225.667 432.8 247.7 460 262.5C487.2 277.3 509 327.333 516.5 350.5M368 229C391 251.833 438.7 296.8 445.5 294C454 290.5 480 313 489.5 396.5M303.5 162C321.667 164.833 359 179.7 363 216.5M299.5 169C312.667 173.167 338.5 188.5 336.5 216.5M288 170.5C284.5 174.667 276.8 187.6 274 206M293.5 170.5C299.833 178.5 312.5 198.9 312.5 216.5M278.5 169C270.833 174.667 255.2 192.1 254 216.5M269 169C257.5 169.833 231.1 179.3 217.5 210.5M293.5 151.5C302.333 122.5 311.7 59.1 278.5 37.5M288 136.5C285.333 117.833 268.7 77.1 223.5 63.5M274 156.5C272.333 137.667 250.2 99.5 175 97.5M249 162C231.833 141.167 186.4 105.2 142 128M238.5 170.5C209.667 148.333 133.7 124.4 60.5 206M191.5 189C165.667 179.5 97.4 180.9 31 262.5M191.5 206C148.333 210.333 54.7 244.2 25.5 345M175 229C147 238.167 83.5 284.5 53.5 396.5M101 262.5C84.3333 277.333 49 319 41 367M175 248C167.167 262.5 144.4 298.1 116 324.5C87.6 350.9 76.8333 395.5 75 414.5M345.5 238.5C357 251.5 387.5 282.2 417.5 301C447.5 319.8 462.333 375.833 466 401.5" stroke="#A21D10" stroke-width="4"/>
<mask id="path-5-inside-2" fill="white">
<path fill-rule="evenodd" clip-rule="evenodd" d="M303.946 371.46C287.807 361.48 279.962 353.379 273.5 338C265.114 354.158 256.96 362.177 241.835 371.957C239.486 372.969 237.668 374.099 236.499 375.311C235.994 375.621 235.482 375.934 234.962 376.25H235.737C235.253 376.978 235 377.73 235 378.5C235 384.851 252.237 390 273.5 390C294.763 390 312 384.851 312 378.5C312 377.73 311.747 376.978 311.263 376.25H312.038C311.558 375.976 311.084 375.704 310.616 375.433C309.265 373.972 306.973 372.627 303.946 371.46Z"/>
</mask>
<path fill-rule="evenodd" clip-rule="evenodd" d="M303.946 371.46C287.807 361.48 279.962 353.379 273.5 338C265.114 354.158 256.96 362.177 241.835 371.957C239.486 372.969 237.668 374.099 236.499 375.311C235.994 375.621 235.482 375.934 234.962 376.25H235.737C235.253 376.978 235 377.73 235 378.5C235 384.851 252.237 390 273.5 390C294.763 390 312 384.851 312 378.5C312 377.73 311.747 376.978 311.263 376.25H312.038C311.558 375.976 311.084 375.704 310.616 375.433C309.265 373.972 306.973 372.627 303.946 371.46Z" fill="#C8592A"/>
<path d="M273.5 338L276.266 336.838L273.786 330.937L270.837 336.618L273.5 338ZM303.946 371.46L302.368 374.012L302.606 374.159L302.868 374.26L303.946 371.46ZM241.835 371.957L243.022 374.712L243.253 374.613L243.463 374.476L241.835 371.957ZM236.499 375.311L238.069 377.868L238.394 377.668L238.659 377.394L236.499 375.311ZM234.962 376.25L233.404 373.686L224.246 379.25H234.962V376.25ZM235.737 376.25L238.236 377.91L241.33 373.25H235.737V376.25ZM311.263 376.25V373.25H305.67L308.764 377.91L311.263 376.25ZM312.038 376.25V379.25H323.336L313.526 373.645L312.038 376.25ZM310.616 375.433L308.413 377.469L308.722 377.804L309.116 378.032L310.616 375.433ZM270.734 339.162C274.069 347.097 277.817 353.283 282.888 358.787C287.935 364.266 294.187 368.953 302.368 374.012L305.524 368.909C297.566 363.987 291.826 359.633 287.301 354.722C282.799 349.836 279.394 344.282 276.266 336.838L270.734 339.162ZM243.463 374.476C258.95 364.463 267.498 356.077 276.163 339.382L270.837 336.618C262.73 352.238 254.97 359.891 240.206 369.438L243.463 374.476ZM238.659 377.394C239.438 376.586 240.85 375.648 243.022 374.712L240.647 369.202C238.123 370.29 235.899 371.612 234.34 373.229L238.659 377.394ZM236.519 378.814C237.043 378.496 237.559 378.181 238.069 377.868L234.93 372.755C234.429 373.062 233.92 373.373 233.404 373.686L236.519 378.814ZM235.737 373.25H234.962V379.25H235.737V373.25ZM238 378.5C238 378.422 238.018 378.237 238.236 377.91L233.237 374.59C232.489 375.718 232 377.038 232 378.5H238ZM273.5 387C263.075 387 253.753 385.734 247.135 383.757C243.807 382.763 241.332 381.639 239.756 380.526C238.1 379.356 238 378.627 238 378.5H232C232 381.548 234.054 383.845 236.295 385.427C238.616 387.066 241.779 388.419 245.418 389.506C252.734 391.692 262.662 393 273.5 393V387ZM309 378.5C309 378.627 308.9 379.356 307.244 380.526C305.668 381.639 303.193 382.763 299.865 383.757C293.247 385.734 283.925 387 273.5 387V393C284.338 393 294.266 391.692 301.582 389.506C305.221 388.419 308.384 387.066 310.705 385.427C312.946 383.845 315 381.548 315 378.5H309ZM308.764 377.91C308.982 378.237 309 378.422 309 378.5H315C315 377.038 314.511 375.718 313.763 374.59L308.764 377.91ZM312.038 373.25H311.263V379.25H312.038V373.25ZM309.116 378.032C309.588 378.304 310.066 378.578 310.55 378.855L313.526 373.645C313.05 373.373 312.58 373.103 312.116 372.835L309.116 378.032ZM302.868 374.26C305.729 375.363 307.521 376.504 308.413 377.469L312.819 373.397C311.01 371.439 308.217 369.891 305.025 368.661L302.868 374.26Z" fill="#B24E28" mask="url(#path-5-inside-2)"/>
<path d="M251.5 422.5C257.833 418.5 272.5 413.6 280.5 426M270.5 430C268 428.333 262.9 426.4 262.5 432" stroke="#B25530" stroke-width="3"/>
<path d="M351.167 362.892C336.76 364.913 318.429 361.174 297.313 345.393C303.173 331.084 317.577 318.517 333.755 315.731C341.999 314.311 350.707 315.428 359.025 320.151C367.179 324.782 375.052 332.932 381.736 345.754C375.91 353.301 365.356 360.901 351.167 362.892Z" fill="#EDEBEB" stroke="#B24E28" stroke-width="3"/>
<circle cx="339" cy="341" r="18" fill="#7F4C34" stroke="#703E28" stroke-width="2"/>
<path d="M329.649 329.017C316.701 330.992 306.321 336.725 298.707 341.809C300.239 338.412 303.08 334.387 307.013 330.46C312.548 324.933 320.036 319.812 328.457 317.116C336.857 314.427 346.16 314.154 355.441 318.255C363.568 321.846 371.806 328.847 379.439 340.778C360.203 329.12 343.526 326.9 329.649 329.017Z" fill="#CF6E47" stroke="#B24E28" stroke-width="3"/>
<circle cx="339" cy="341" r="9" fill="#6B402C"/>
<path d="M223.667 362.263C209.26 364.284 190.929 360.545 169.813 344.764C175.673 330.455 190.077 317.888 206.255 315.102C214.499 313.682 223.207 314.799 231.525 319.523C239.679 324.153 247.552 332.303 254.236 345.126C248.41 352.672 237.856 360.272 223.667 362.263Z" fill="#EDEBEB" stroke="#B24E28" stroke-width="3"/>
<circle cx="211.5" cy="340.371" r="18" fill="#7F4C34" stroke="#703E28" stroke-width="2"/>
<path d="M202.149 328.388C189.201 330.363 178.821 336.097 171.207 341.18C172.739 337.783 175.58 333.758 179.513 329.831C185.048 324.304 192.536 319.183 200.957 316.487C209.357 313.798 218.66 313.525 227.941 317.626C236.068 321.217 244.306 328.218 251.939 340.149C232.703 328.491 216.026 326.272 202.149 328.388Z" fill="#CF6E47" stroke="#B24E28" stroke-width="3"/>
<circle cx="211.5" cy="340.371" r="9" fill="#6B402C"/>
</svg>
